<?xml version="1.0" encoding="UTF-8"?>
<svg version="1.1" xmlns="http://www.w3.org/2000/svg" width="1920" height="1080">
<path d="M0 0 C2.81894073 2.21818287 5.38716781 4.53232515 8 7 C8.33 2.38 8.66 -2.24 9 -7 C19.89 -7 30.78 -7 42 -7 C42 40.19 42 87.38 42 136 C31.77 136 21.54 136 11 136 C10.67 130.72 10.34 125.44 10 120 C8.618125 121.36125 7.23625 122.7225 5.8125 124.125 C-8.42310629 136.94714183 -24.81898048 137.85105792 -43.01318359 137.1953125 C-59.61344115 136.10979623 -74.62987614 127.51386749 -85.515625 115.140625 C-95.36203405 102.55547966 -101.35598039 87.07365616 -102 71 C-102.0515625 69.99066406 -102.103125 68.98132813 -102.15625 67.94140625 C-102.5180243 54.66127455 -100.47652778 41.17214564 -95 29 C-94.60296875 28.11183594 -94.2059375 27.22367187 -93.796875 26.30859375 C-86.61669966 11.80381426 -74.28968581 0.8907766 -59.2578125 -4.93359375 C-39.99159701 -11.24016069 -17.51291679 -11.4675327 0 0 Z M-58.8125 32.6875 C-68.10906118 44.17664636 -69.96449279 57.6682399 -69 72 C-67.14313795 83.3587733 -62.25971013 93.9110088 -53 101 C-42.31951606 107.36667809 -32.1931855 109.86333186 -19.80078125 107.3515625 C-8.44503706 103.94920124 -0.55367448 97.16054536 5.18359375 86.87890625 C11.65154634 73.58761907 10.91083382 59.90166838 7 46 C3.57426087 36.35419336 -2.90763945 28.91817973 -11.9375 24.0625 C-28.06034927 16.79091946 -46.46564585 19.70201546 -58.8125 32.6875 Z " fill="#001444" transform="translate(933,476)"/>
<path d="M0 0 C1.5783275 1.3401493 3.08478435 2.76459231 4.56640625 4.2109375 C4.89640625 -0.4090625 5.22640625 -5.0290625 5.56640625 -9.7890625 C16.12640625 -9.7890625 26.68640625 -9.7890625 37.56640625 -9.7890625 C37.56640625 37.4009375 37.56640625 84.5909375 37.56640625 133.2109375 C27.33640625 133.2109375 17.10640625 133.2109375 6.56640625 133.2109375 C6.07140625 125.7859375 6.07140625 125.7859375 5.56640625 118.2109375 C4.53515625 119.2215625 3.50390625 120.2321875 2.44140625 121.2734375 C-12.10507296 134.00807766 -28.84207242 135.19431744 -47.30126953 134.45361328 C-54.18413525 133.92036554 -60.12392778 131.99222051 -66.43359375 129.2109375 C-67.41972656 128.788125 -68.40585938 128.3653125 -69.421875 127.9296875 C-84.8249051 120.43514386 -95.43216113 106.80304336 -101.37109375 91.0234375 C-104.64679983 81.5015822 -105.80501696 71.98727696 -105.74609375 61.9609375 C-105.7411792 60.96022217 -105.73626465 59.95950684 -105.73120117 58.9284668 C-105.4183923 38.99371857 -99.13514375 21.19700622 -85.37109375 6.5234375 C-62.80154243 -15.05946677 -25.48660938 -18.7365443 0 0 Z M-62.80078125 30.05859375 C-72.24483266 42.50757061 -73.59370913 56.17499179 -72.43359375 71.2109375 C-70.77769592 81.42929437 -66.11794212 90.21370816 -58.30078125 97.0859375 C-48.86820068 103.847644 -38.94812686 106.3853053 -27.43359375 105.2109375 C-16.84469683 103.26664852 -8.09743196 97.64418886 -1.43359375 89.2109375 C5.82289262 76.44319567 7.46610647 62.74563871 4.87890625 48.3984375 C1.65787319 37.01745402 -4.40308102 28.39191345 -14.37109375 21.9609375 C-30.2060726 13.27723942 -50.51299821 16.99925224 -62.80078125 30.05859375 Z " fill="#001444" transform="translate(1504.43359375,478.7890625)"/>
<path d="M0 0 C15.06592045 12.14023354 21.55348515 30.11689161 23.73828125 48.7578125 C23.962029 51.529613 24.0197743 54.22274335 24 57 C14.30971629 59.56980155 4.52910931 61.6094854 -5.28911018 63.62015152 C-8.15199639 64.20644079 -11.01422943 64.79583192 -13.87632751 65.38595581 C-18.91012448 66.42333558 -23.94446829 67.45803286 -28.97900391 68.49182129 C-37.0674889 70.15274653 -45.15550321 71.81594121 -53.24279594 73.4826622 C-56.06267011 74.06311088 -58.88300885 74.64126195 -61.7033844 75.2192688 C-63.42345162 75.57332705 -65.14349968 75.92747841 -66.86352539 76.28173828 C-67.64740128 76.44174316 -68.43127716 76.60174805 -69.23890686 76.76660156 C-72.22613705 77.38370968 -75.10304344 78.03434781 -78 79 C-72.66148344 89.40487346 -66.23616339 95.20882837 -55.26171875 99.2734375 C-43.16305204 103.16005582 -28.50396538 102.2159843 -17 97 C-12.09606092 94.29886124 -7.7286523 91.21499826 -4 87 C0.27994767 88.57469773 2.69447519 91.83291665 5.5 95.25 C5.97308594 95.81074219 6.44617188 96.37148438 6.93359375 96.94921875 C9.88452051 100.488696 12.50945867 104.12321396 15 108 C4.5142566 121.36758679 -9.46135219 128.11848094 -26 131 C-30.61417602 131.40937257 -35.18207969 131.47821897 -39.8125 131.4375 C-41.03791504 131.42920166 -42.26333008 131.42090332 -43.52587891 131.41235352 C-63.25172704 131.04551279 -80.54544539 124.90390491 -95 111 C-110.04058206 95.32165475 -114.64379127 76.08346683 -114.47070312 54.99267578 C-113.92831486 34.30979564 -106.83447927 16.31239876 -91.6953125 1.7890625 C-65.20724108 -20.87777895 -27.52115577 -20.00010709 0 0 Z M-75.1015625 27.29296875 C-81.1470531 35.91339053 -83.17459712 45.69876972 -83 56 C-57.87891035 51.60595275 -32.95024717 46.26192932 -8 41 C-8.60352474 39.41962843 -9.21434447 37.84204178 -9.828125 36.265625 C-10.1674707 35.38680664 -10.50681641 34.50798828 -10.85644531 33.60253906 C-14.86135803 24.48802806 -22.01519864 18.4640626 -31.0625 14.625 C-47.70547678 9.13120184 -63.87034118 14.31897171 -75.1015625 27.29296875 Z " fill="#001444" transform="translate(694,482)"/>
<path d="M0 0 C16.16056947 -0.45090875 30.78275697 2.83329076 43.3125 13.40234375 C55.52533102 25.08673496 60.36855574 41.87756547 61.02656746 58.38704109 C61.05906065 60.70666048 61.06145273 63.02417399 61.05102539 65.34399414 C61.05117142 66.21337616 61.05131744 67.08275818 61.0514679 67.97848511 C61.05077767 70.81901649 61.04302741 73.65948024 61.03515625 76.5 C61.0332889 78.48253849 61.0318665 80.46507745 61.03086853 82.44761658 C61.02706829 87.64087215 61.01725952 92.83409932 61.00616455 98.02734375 C60.9958966 103.33658463 60.99135942 108.64583015 60.98632812 113.95507812 C60.97563481 124.35418109 60.95805843 134.7532556 60.9375 145.15234375 C50.0475 145.15234375 39.1575 145.15234375 27.9375 145.15234375 C27.92291748 142.53893066 27.90833496 139.92551758 27.89331055 137.23291016 C27.84283962 128.57153606 27.77622271 119.91033938 27.70178509 111.24913979 C27.65717076 106.00090717 27.61789507 100.75275058 27.59106445 95.50439453 C27.56494216 90.433815 27.52447705 85.36352945 27.47431374 80.29313278 C27.45770521 78.36442107 27.44615366 76.43565857 27.43988609 74.50688553 C27.39171205 61.03748136 27.28290378 48.82677787 17.9375 38.15234375 C10.95597177 32.22599474 2.90615503 30.61533967 -6.0703125 30.8515625 C-16.90574373 31.94076381 -25.02345918 35.77378397 -32.0625 44.15234375 C-37.64869137 52.55798077 -39.35209513 61.75637632 -39.38134766 71.70141602 C-39.39641609 72.90307655 -39.39641609 72.90307655 -39.41178894 74.12901306 C-39.4423547 76.74225227 -39.45958107 79.35539035 -39.4765625 81.96875 C-39.49529563 83.79435582 -39.51487061 85.61995317 -39.5352478 87.44554138 C-39.58634855 92.22444648 -39.62609166 97.00337958 -39.66339111 101.78240967 C-39.70356981 106.66946209 -39.75459858 111.55640025 -39.8046875 116.44335938 C-39.90118535 126.01294813 -39.98466879 135.58258495 -40.0625 145.15234375 C-50.9525 145.15234375 -61.8425 145.15234375 -73.0625 145.15234375 C-73.0625 97.96234375 -73.0625 50.77234375 -73.0625 2.15234375 C-62.8325 2.15234375 -52.6025 2.15234375 -42.0625 2.15234375 C-41.5675 10.07234375 -41.5675 10.07234375 -41.0625 18.15234375 C-38.5875 15.67734375 -38.5875 15.67734375 -36.0625 13.15234375 C-25.80320041 4.34799937 -13.31705252 0.66245542 0 0 Z " fill="#001444" transform="translate(409.0625,466.84765625)"/>
<path d="M0 0 C10.89 0 21.78 0 33 0 C33.01458252 2.61341309 33.02916504 5.22682617 33.04418945 7.91943359 C33.09466038 16.58080769 33.16127729 25.24200437 33.23571491 33.90320396 C33.28032924 39.15143658 33.31960493 44.39959317 33.34643555 49.64794922 C33.37255784 54.71852875 33.41302295 59.7888143 33.46318626 64.85921097 C33.47979479 66.78792268 33.49134634 68.71668518 33.49761391 70.64545822 C33.52159582 90.26608814 33.52159582 90.26608814 43 107 C51.73364664 113.35312143 60.49926337 113.75680985 71 113 C80.07834468 110.95041053 87.23991493 107.16323951 92.25 99.25 C97.66021418 89.52604171 99.11344384 80.05825405 99.20532227 69.0234375 C99.21522186 68.27124435 99.22512146 67.51905121 99.23532104 66.74406433 C99.26660311 64.28774024 99.29155995 61.83139688 99.31640625 59.375 C99.33700463 57.66007011 99.35800181 55.94514497 99.37937927 54.23022461 C99.43430231 49.738992 99.48384157 45.24771586 99.53222656 40.75640869 C99.58266037 36.16438978 99.63823168 31.57243328 99.69335938 26.98046875 C99.80057629 17.98703075 99.90162526 8.99353907 100 0 C110.56 0 121.12 0 132 0 C132 47.19 132 94.38 132 143 C121.77 143 111.54 143 101 143 C100.505 135.575 100.505 135.575 100 128 C98.96875 129.010625 97.9375 130.02125 96.875 131.0625 C81.82546299 144.23753952 64.06395268 145.2648169 45 144 C36.04612617 142.8449003 28.3160958 139.17148887 21 134 C19.948125 133.2575 18.89625 132.515 17.8125 131.75 C4.72671314 118.9550084 0.07691044 101.32081725 -0.31622601 83.48238373 C-0.35892608 78.83134207 -0.33149264 74.1822206 -0.29296875 69.53125 C-0.28735844 67.51387857 -0.28309515 65.49650299 -0.28010559 63.47912598 C-0.26876967 58.22503949 -0.2394023 52.97121042 -0.20599365 47.71722412 C-0.17504713 42.33365356 -0.16154825 36.95004053 -0.14648438 31.56640625 C-0.11451937 21.04414079 -0.06184639 10.52213229 0 0 Z " fill="#001444" transform="translate(1245,469)"/>
<path d="M0 0 C11.99147727 10.78338068 11.99147727 10.78338068 15.09375 17.8828125 C15.09375 19.2028125 15.09375 20.5228125 15.09375 21.8828125 C13.0300293 23.63793945 13.0300293 23.63793945 10.16796875 25.37109375 C9.14380859 25.99435547 8.11964844 26.61761719 7.06445312 27.25976562 C5.98099609 27.89849609 4.89753906 28.53722656 3.78125 29.1953125 C2.1734668 30.18241211 2.1734668 30.18241211 0.53320312 31.18945312 C-5.40487225 34.75229835 -5.40487225 34.75229835 -7.90625 35.8828125 C-11.47784839 34.6922797 -11.89841953 33.73213631 -13.96875 30.6953125 C-19.83842168 22.971414 -27.45053007 19.30710629 -36.83203125 17.2890625 C-46.89720108 15.95897653 -57.26320844 17.88123455 -65.60546875 23.796875 C-74.95605258 31.70783232 -80.13110779 40.75267408 -81.90625 52.8828125 C-83.04009278 66.80388217 -80.63294299 80.11466674 -71.65625 91.0703125 C-64.5042686 98.79808901 -56.11856741 102.16245924 -45.69921875 103.203125 C-34.51742443 103.60105362 -25.16095938 100.52338595 -16.90625 92.8828125 C-15.23946231 91.10465815 -13.66239061 89.29545616 -12.1328125 87.3984375 C-10.90625 85.8828125 -10.90625 85.8828125 -8.90625 83.8828125 C-5.27834304 86.00287898 -1.65443872 88.12969422 1.96875 90.2578125 C3.00128906 90.86109375 4.03382812 91.464375 5.09765625 92.0859375 C6.08378906 92.66601562 7.06992188 93.24609375 8.0859375 93.84375 C8.99714355 94.37790527 9.90834961 94.91206055 10.84716797 95.46240234 C13.09375 96.8828125 13.09375 96.8828125 15.09375 98.8828125 C14.57624585 106.65864401 7.72601316 113.65913906 2.21875 118.6953125 C-15.18918625 132.85196104 -34.28017321 134.05746513 -55.90625 132.8828125 C-72.99630735 130.94280599 -88.98719354 121.17372541 -100.09375 108.3203125 C-109.74360006 95.55312404 -115.07987133 80.84225064 -115.90625 64.8828125 C-115.9475 64.10679687 -115.98875 63.33078125 -116.03125 62.53125 C-116.58463053 41.29527218 -109.6335152 21.92668844 -95.15625 6.5078125 C-71.16553298 -16.03901878 -26.45253795 -22.13962415 0 0 Z " fill="#001444" transform="translate(1111.90625,480.1171875)"/>
<path d="M0 0 C10.56 0 21.12 0 32 0 C32 10.89 32 21.78 32 33 C43.88 33 55.76 33 68 33 C68 41.91 68 50.82 68 60 C56.12 60 44.24 60 32 60 C32.0909139 72.77946456 32.0909139 72.77946456 32.20898438 85.55859375 C32.26319896 90.77487435 32.31431307 95.99105001 32.34643555 101.20751953 C32.37255008 105.41576996 32.41300933 109.62366568 32.46318626 113.83169556 C32.47980009 115.43270436 32.49134839 117.03377444 32.49761391 118.63485718 C32.0409386 131.43404981 32.0409386 131.43404981 37.41596985 142.53588867 C42.38710767 146.93454426 46.63971939 147.32613658 53.00390625 147.30078125 C57.02478401 146.89712077 60.26820239 145.57590538 63.90625 143.875 C66 143 66 143 69 143 C70.39984873 146.57411983 71.76543307 150.16038434 73.125 153.75 C73.52332031 154.76578125 73.92164063 155.7815625 74.33203125 156.828125 C74.69941406 157.8078125 75.06679687 158.7875 75.4453125 159.796875 C75.79094238 160.69760742 76.13657227 161.59833984 76.49267578 162.52636719 C77 165 77 165 76.23071289 167.23681641 C74.58443132 169.5953654 72.90021443 170.39652914 70.3125 171.625 C69.48363281 172.02976562 68.65476562 172.43453125 67.80078125 172.8515625 C60.41612105 175.87958216 54.13384811 176.3371017 46.1875 176.3125 C45.15818359 176.32861328 44.12886719 176.34472656 43.06835938 176.36132812 C31.06623496 176.3689196 20.85529233 173.05090601 11.76953125 165.03125 C3.82218104 156.80059838 -0.13038133 146.41823555 -0.12025452 135.04582214 C-0.12162918 133.8525531 -0.12300385 132.65928406 -0.12442017 131.42985535 C-0.12082489 130.12937759 -0.11722961 128.82889984 -0.11352539 127.48901367 C-0.11324317 126.09913129 -0.11340193 124.70924875 -0.1139679 123.31936646 C-0.11425452 119.55324062 -0.10837959 115.78714671 -0.10139394 112.02102828 C-0.09513794 108.08256807 -0.09455482 104.14410711 -0.09336853 100.2056427 C-0.09026184 92.75074105 -0.08205737 85.29585408 -0.07201904 77.84095889 C-0.06083735 69.35249378 -0.05534227 60.86402795 -0.05032361 52.3755573 C-0.03987422 34.91702819 -0.02153696 17.4585192 0 0 Z " fill="#001444" transform="translate(1148,437)"/>
<path d="M0 0 C10.56 0 21.12 0 32 0 C32 10.89 32 21.78 32 33 C43.88 33 55.76 33 68 33 C68 41.91 68 50.82 68 60 C56.12 60 44.24 60 32 60 C32.0909139 72.77946456 32.0909139 72.77946456 32.20898438 85.55859375 C32.26319896 90.77487435 32.31431307 95.99105001 32.34643555 101.20751953 C32.37255008 105.41576996 32.41300933 109.62366568 32.46318626 113.83169556 C32.47980009 115.43270436 32.49134839 117.03377444 32.49761391 118.63485718 C32.0409386 131.43404981 32.0409386 131.43404981 37.41596985 142.53588867 C42.38710767 146.93454426 46.63971939 147.32613658 53.00390625 147.30078125 C57.02478401 146.89712077 60.26820239 145.57590538 63.90625 143.875 C66 143 66 143 69 143 C70.39984873 146.57411983 71.76543307 150.16038434 73.125 153.75 C73.52332031 154.76578125 73.92164063 155.7815625 74.33203125 156.828125 C74.69941406 157.8078125 75.06679688 158.7875 75.4453125 159.796875 C75.79094238 160.69760742 76.13657227 161.59833984 76.49267578 162.52636719 C77 165 77 165 76.23071289 167.23681641 C74.58443132 169.5953654 72.90021443 170.39652914 70.3125 171.625 C69.48363281 172.02976562 68.65476562 172.43453125 67.80078125 172.8515625 C60.41612105 175.87958216 54.13384811 176.3371017 46.1875 176.3125 C45.15818359 176.32861328 44.12886719 176.34472656 43.06835938 176.36132812 C31.06623496 176.3689196 20.85529233 173.05090601 11.76953125 165.03125 C3.82218104 156.80059838 -0.13038133 146.41823555 -0.12025452 135.04582214 C-0.12162918 133.8525531 -0.12300385 132.65928406 -0.12442017 131.42985535 C-0.12082489 130.12937759 -0.11722961 128.82889984 -0.11352539 127.48901367 C-0.11324317 126.09913129 -0.11340193 124.70924875 -0.1139679 123.31936646 C-0.11425452 119.55324062 -0.10837959 115.78714671 -0.10139394 112.02102828 C-0.09513794 108.08256807 -0.09455482 104.14410711 -0.09336853 100.2056427 C-0.09026184 92.75074105 -0.08205737 85.29585408 -0.07201904 77.84095889 C-0.06083735 69.35249378 -0.05534227 60.86402795 -0.05032361 52.3755573 C-0.03987422 34.91702819 -0.02153696 17.4585192 0 0 Z " fill="#001444" transform="translate(497,437)"/>
<path d="M0 0 C0 10.89 0 21.78 0 33 C-4.95 33 -9.9 33 -15 33 C-25.66921871 35.33005926 -33.69462909 39.91898236 -40 49 C-47.00182269 61.34589297 -46.30780199 77.19204248 -46.4140625 90.99609375 C-46.43283342 92.56650237 -46.4524109 94.13690153 -46.4727478 95.70729065 C-46.52345084 99.78575997 -46.56340168 103.86426178 -46.60089111 107.94287109 C-46.64846843 112.8658588 -46.70979373 117.78869327 -46.76873779 122.71155548 C-46.85619337 130.14097299 -46.92649679 137.57037251 -47 145 C-57.56 145 -68.12 145 -79 145 C-79 97.81 -79 50.62 -79 2 C-68.77 2 -58.54 2 -48 2 C-47.505 10.415 -47.505 10.415 -47 19 C-46.236875 17.989375 -45.47375 16.97875 -44.6875 15.9375 C-33.38342807 2.92068989 -16.4241455 0 0 0 Z " fill="#001444" transform="translate(1654,467)"/>
<path d="M0 0 C0 10.89 0 21.78 0 33 C-4.95 33 -9.9 33 -15 33 C-25.6626098 35.32861593 -33.70422244 39.91677894 -40 49 C-46.86501529 61.29714577 -46.31055947 76.42382461 -46.4140625 90.1171875 C-46.43282712 91.71144554 -46.4524042 93.30569419 -46.4727478 94.89993286 C-46.5235171 99.04582116 -46.56343367 103.19174148 -46.60089111 107.33776855 C-46.64841454 112.33915763 -46.70976981 117.34039483 -46.76873779 122.34165955 C-46.85627477 129.8943765 -46.92652044 137.44707442 -47 145 C-57.56 145 -68.12 145 -79 145 C-79 97.81 -79 50.62 -79 2 C-68.77 2 -58.54 2 -48 2 C-47.505 10.415 -47.505 10.415 -47 19 C-46.236875 17.989375 -45.47375 16.97875 -44.6875 15.9375 C-33.38342807 2.92068989 -16.4241455 0 0 0 Z " fill="#001444" transform="translate(822,467)"/>
<path d="M0 0 C10.89 0 21.78 0 33 0 C33 47.19 33 94.38 33 143 C22.11 143 11.22 143 0 143 C0 95.81 0 48.62 0 0 Z " fill="#001444" transform="translate(271,469)"/>
<path d="M0 0 C5.8458715 3.22342447 9.43167865 7.73813135 11.46484375 14.10546875 C12.53242062 20.11508687 11.7013857 26.20928844 8.328125 31.3046875 C4.16736615 36.33073691 0.53490517 39.67759161 -6.171875 40.37109375 C-12.85751396 40.62527127 -18.92307537 40.57315474 -24.1875 36.0625 C-29.5143715 29.69595402 -31.74364037 24.4046055 -31.1875 16.0625 C-29.64601166 9.78730733 -26.81084816 4.33237958 -21.1796875 0.8046875 C-13.81566082 -2.86449653 -7.5838024 -3.26966331 0 0 Z " fill="#00A0CF" transform="translate(297.1875,643.9375)"/>
<path d="M0 0 C5.65780739 4.3107104 9.65304903 8.37222775 11.1875 15.5 C12.0477264 22.50746223 10.95130393 27.36804865 7.0625 33.25 C3.1180388 38.11355895 -1.50411224 40.35819477 -7.63671875 41.375 C-14.25616849 41.74467259 -20.17223678 39.76477851 -25.203125 35.421875 C-29.62331181 30.65837271 -31.09941659 26.03141748 -31.6875 19.5625 C-31.12638846 13.16582845 -29.04179279 7.54066326 -24.375 3 C-17.3137682 -2.33088044 -8.27000404 -2.45037157 0 0 Z " fill="#E35030" transform="translate(297.375,397)"/>
</svg>
